<svg xmlns="http://www.w3.org/2000/svg" width="26" height="25" viewBox="0 0 26 25" fill="none">
    <g clip-path="url(#clip0_2_106)">
      <path d="M13 0C5.82029 0 0 5.63064 0 12.5764C0 18.8535 4.75389 24.0565 10.9688 25V16.2118H7.66797V12.5764H10.9688V9.80566C10.9688 6.6537 12.9096 4.91265 15.879 4.91265C17.3014 4.91265 18.7891 5.15829 18.7891 5.15829V8.25326H17.1498C15.535 8.25326 15.0312 9.22277 15.0312 10.2173V12.5764H18.6367L18.0604 16.2118H15.0312V25C21.2461 24.0565 26 18.8538 26 12.5764C26 5.63064 20.1797 0 13 0Z" fill="black" />
    </g>
    <defs>
      <clipPath id="clip0_2_106">
        <rect width="26" height="25" fill="white"/>
      </clipPath>
    </defs>
  </svg>