<svg xmlns="http://www.w3.org/2000/svg" width="23" height="23" viewBox="0 0 23 23" fill="none">
    <g clip-path="url(#clip0_2_102)">
      <path d="M16.3604 0H6.63797C2.9721 0 0 2.9721 0 6.63797V16.3604C0 20.0263 2.9721 22.9984 6.63797 22.9984H16.3604C20.0263 22.9984 22.9984 20.0263 22.9984 16.3604V6.63797C23 2.9721 20.0279 0 16.3604 0ZM20.8813 16.5314C20.8813 18.9645 18.9091 20.9383 16.4744 20.9383H6.52397C4.09092 20.9383 2.11711 18.9661 2.11711 16.5314V6.58097C2.11711 4.14791 4.08929 2.17411 6.52397 2.17411H16.4744C18.9075 2.17411 20.8813 4.14629 20.8813 6.58097V16.5314Z" fill="black" />
      <path d="M11.4992 5.58917C8.20302 5.58917 5.5322 8.26162 5.5322 11.5562C5.5322 14.8507 8.20465 17.5232 11.4992 17.5232C14.7938 17.5232 17.4662 14.8507 17.4662 11.5562C17.4662 8.26162 14.7938 5.58917 11.4992 5.58917ZM11.4992 15.4256C9.36254 15.4256 7.6314 13.6928 7.6314 11.5578C7.6314 9.42278 9.36417 7.69 11.4992 7.69C13.6342 7.69 15.367 9.42278 15.367 11.5578C15.367 13.6928 13.6342 15.4256 11.4992 15.4256Z" fill="black" />
      <path d="M17.6665 6.75361C18.4346 6.75361 19.0573 6.13093 19.0573 5.36283C19.0573 4.59472 18.4346 3.97205 17.6665 3.97205C16.8984 3.97205 16.2757 4.59472 16.2757 5.36283C16.2757 6.13093 16.8984 6.75361 17.6665 6.75361Z" fill="black" />
    </g>
    <defs>
      <clipPath id="clip0_2_102">
        <rect width="23" height="23" fill="white"/>
      </clipPath>
    </defs>
  </svg>