<svg xmlns="http://www.w3.org/2000/svg" width="94" height="60" viewBox="0 0 94 60" fill="none">
    <circle cx="36" cy="30" r="16" fill="#0047FF" fill-opacity="0.8"/>
    <path fill-rule="evenodd" clip-rule="evenodd" d="M57 46C65.8366 46 73 38.8366 73 30C73 21.1634 65.8366 14 57 14C48.1634 14 41 21.1634 41 30C41 38.8366 48.1634 46 57 46ZM57 25C59.7614 25 62 27.2386 62 30C62 32.7614 59.7614 35 57 35C54.2386 35 52 32.7614 52 30C52 27.2386 54.2386 25 57 25Z" fill="#AFAFAF"/>
    <path fill-rule="evenodd" clip-rule="evenodd" d="M57 46C65.8366 46 73 38.8366 73 30C73 21.1634 65.8366 14 57 14C48.1634 14 41 21.1634 41 30C41 38.8366 48.1634 46 57 46ZM57 25C59.7614 25 62 27.2386 62 30C62 32.7614 59.7614 35 57 35C54.2386 35 52 32.7614 52 30C52 27.2386 54.2386 25 57 25Z" fill="#AFAFAF"/>
    <path fill-rule="evenodd" clip-rule="evenodd" d="M57 46C65.8366 46 73 38.8366 73 30C73 21.1634 65.8366 14 57 14C48.1634 14 41 21.1634 41 30C41 38.8366 48.1634 46 57 46ZM57 25C59.7614 25 62 27.2386 62 30C62 32.7614 59.7614 35 57 35C54.2386 35 52 32.7614 52 30C52 27.2386 54.2386 25 57 25Z" fill="#00C8BC"/>
</svg>