<svg xmlns="http://www.w3.org/2000/svg" width="21" height="24" viewBox="0 0 21 24" fill="none">
    <g clip-path="url(#clip0_2_108)">
      <path fill-rule="evenodd" clip-rule="evenodd" d="M15.5632 8.66374C17.0948 9.77055 18.9723 10.423 21 10.423V6.47927C20.6156 6.47927 20.2336 6.43917 19.8588 6.35899V9.46317C17.8324 9.46317 15.9548 8.81196 14.422 7.70393V15.7517C14.422 19.7768 11.1931 23.0402 7.21103 23.0402C5.7251 23.0402 4.34368 22.587 3.1965 21.8082C4.50585 23.1617 6.33173 24.0012 8.3522 24.0012C12.3355 24.0012 15.5632 20.7378 15.5632 16.7127V8.66495V8.66374ZM16.9711 4.6848C16.1879 3.82097 15.6737 2.70201 15.5632 1.46641V0.959778H14.4809C14.7536 2.52949 15.6821 3.872 16.9711 4.6848ZM5.71429 18.7174C5.27704 18.1379 5.0404 17.4283 5.0416 16.6982C5.0416 14.8575 6.51792 13.3644 8.34019 13.3644C8.68014 13.3644 9.01649 13.4166 9.34082 13.5211V9.4899C8.96243 9.43766 8.58044 9.41579 8.19965 9.42308V12.5613C7.87531 12.4568 7.53777 12.4045 7.19782 12.4045C5.37674 12.4045 3.89923 13.8977 3.89923 15.7396C3.89923 17.0408 4.63799 18.1695 5.71429 18.7174Z" fill="black" />
      <path fill-rule="evenodd" clip-rule="evenodd" d="M14.422 7.70394C15.9536 8.81075 17.8311 9.46317 19.8588 9.46317V6.35899C18.7273 6.11601 17.7254 5.51704 16.9723 4.68602C15.6833 3.87322 14.7548 2.53071 14.4821 0.960999H11.64V16.7127C11.6328 18.5497 10.1589 20.0356 8.34139 20.0356C7.26989 20.0356 6.31851 19.5193 5.71669 18.7198C4.64038 18.1707 3.90162 17.0432 3.90162 15.742C3.90162 13.9002 5.37914 12.407 7.20021 12.407C7.54977 12.407 7.88612 12.4617 8.20204 12.5637V9.42551C4.28962 9.50691 1.14359 12.7387 1.14359 16.714C1.14359 18.6967 1.92679 20.4961 3.1989 21.8094C4.34608 22.5882 5.7275 23.0426 7.21343 23.0426C11.1955 23.0426 14.4244 19.778 14.4244 15.7529V7.70394H14.422Z" fill="#010000" />
      <path fill-rule="evenodd" clip-rule="evenodd" d="M19.8588 6.3578V5.51827C18.839 5.5207 17.8383 5.23155 16.9723 4.68482C17.7386 5.53285 18.7477 6.11846 19.8588 6.3578ZM14.4809 0.959806C14.4557 0.809153 14.4352 0.6585 14.422 0.506632V0H10.4976V15.7517C10.4916 17.5875 9.01768 19.0746 7.199 19.0746C6.66566 19.0746 6.16114 18.947 5.71548 18.7186C6.3173 19.5193 7.26988 20.0344 8.34018 20.0344C10.1588 20.0344 11.6328 18.5473 11.6388 16.7116V0.959806H14.4809ZM8.20083 9.42432V8.53012C7.8729 8.48517 7.54256 8.46208 7.21102 8.46208C3.22772 8.46208 0 11.7254 0 15.7517C0 18.2752 1.2685 20.4997 3.19769 21.8082C1.92558 20.4937 1.14117 18.6956 1.14117 16.7116C1.14117 12.7375 4.28721 9.50572 8.20083 9.42432Z" fill="black" />
    </g>
    <defs>
      <clipPath id="clip0_2_108">
        <rect width="21" height="24" fill="white"/>
      </clipPath>
    </defs>
  </svg>