<svg xmlns="http://www.w3.org/2000/svg" width="28" height="19" viewBox="0 0 28 19" fill="none">
    <g clip-path="url(#clip0_2_100)">
      <path d="M27.414 2.96723C27.0913 1.80011 26.1431 0.879397 24.9391 0.568067C22.7549 0 14 0 14 0C14 0 5.24353 0 3.06088 0.568067C1.8554 0.879397 0.907154 1.79863 0.584475 2.96723C0 5.08309 0 9.50074 0 9.50074C0 9.50074 0 13.9169 0.584475 16.0342C0.907154 17.2028 1.8554 18.1221 3.06088 18.4334C5.24505 19 14 19 14 19C14 19 22.7549 19 24.9391 18.4334C26.1431 18.1206 27.0928 17.2014 27.414 16.0342C27.9985 13.9169 27.9985 9.50074 27.9985 9.50074C27.9985 9.50074 27.9985 5.08457 27.414 2.96723ZM11.1994 13.5716V5.42836L18.4734 9.50074L11.1994 13.5716Z" fill="black"/>
    </g>
    <defs>
      <clipPath id="clip0_2_100">
        <rect width="28" height="19" fill="white"/>
      </clipPath>
    </defs>
  </svg>